<?xml version="1.0" encoding="UTF-8"?>
<svg width="20px" height="18px" viewBox="0 0 20 18" version="1.1" xmlns="http://www.w3.org/2000/svg" xmlns:xlink="http://www.w3.org/1999/xlink">
    <title>0B4769E5-F59A-41CB-8B3A-9034CFF86BB0</title>
    <g id="layout" stroke="none" stroke-width="1" fill="none" fill-rule="evenodd">
        <g id="DESK---Boas-vindas" transform="translate(-110.000000, -1084.000000)" fill="#F4C33F">
            <g id="#5-Footer" transform="translate(0.000000, 1055.000000)">
                <g id="09.Templates-/-Mensagens-Caption-/-Desktop" transform="translate(70.000000, 0.000000)">
                    <g id="Icons-(svg)-/-atencao" transform="translate(40.000000, 29.250000)">
                        <path d="M10.0021645,15.3198911 C9.42678788,15.3198911 8.96053659,14.8495884 8.96053659,14.2692122 C8.96053659,13.6888359 9.42678788,13.2184071 10.0021645,13.2184071 C10.5774161,13.2184071 11.0437924,13.6888359 11.0437924,14.2692122 C11.0437924,14.8495884 10.5774161,15.3198911 10.0021645,15.3198911 L10.0021645,15.3198911 Z M9.16878717,5.52712925 C9.16878717,5.06287867 9.5419132,4.68663649 10.0021645,4.68663649 C10.4624158,4.68663649 10.8355418,5.06287867 10.8355418,5.52712925 L10.8355418,11.1590359 C10.8355418,11.6232865 10.4624158,11.9996548 10.0021645,11.9996548 C9.5419132,11.9996548 9.16878717,11.6232865 9.16878717,11.1590359 L9.16878717,5.52712925 Z M19.7994417,15.1533308 L11.1734177,0.678724221 C10.6336662,-0.227081352 9.33141262,-0.22607266 8.79316112,0.680741605 L0.199387248,15.1552221 C-0.354739291,16.0885146 0.311762561,17.2746105 1.39014056,17.2746105 L18.6099384,17.2746105 C19.6893164,17.2746105 20.3555682,16.0863711 19.7994417,15.1533308 L19.7994417,15.1533308 Z" id="ic_atencao"></path>
                    </g>
                </g>
            </g>
        </g>
    </g>
</svg>