<?xml version="1.0" encoding="UTF-8"?>
<svg width="120px" height="120px" viewBox="0 0 120 120" version="1.1" xmlns="http://www.w3.org/2000/svg" xmlns:xlink="http://www.w3.org/1999/xlink">
    <title>06.Icons-&amp;-Images / Images / 120 / Celular@1x</title>
    <defs>
        <polygon id="path-1" points="0 0.053096 63.7587955 0.053096 63.7587955 87.439736 0 87.439736"></polygon>
        <polygon id="path-3" points="0.116956291 0.0532396271 63.8761936 0.0532396271 63.8761936 87.44 0.116956291 87.44"></polygon>
        <polygon id="path-5" points="0.28776 8.70068 10.62996 71.21192 62.72244 62.59364 52.38024 0.08372"></polygon>
    </defs>
    <g id="06.Icons-&amp;-Images-/-Images-/-120-/-Celular" stroke="none" stroke-width="1" fill="none" fill-rule="evenodd">
        <g id="Group-40" transform="translate(19.000000, 12.000000)">
            <g id="Group-17" transform="translate(0.000000, 0.312444)">
                <g id="Group-3" transform="translate(0.000000, 5.280000)">
                    <mask id="mask-2" fill="white">
                        <use xlink:href="#path-1"></use>
                    </mask>
                    <g id="Clip-2"></g>
                    <path d="M63.68736,74.402096 L52.16376,4.471136 C51.98952,3.420416 51.51036,2.497736 50.8398,1.767776 L52.0674,1.767776 L52.0674,0.053096 L46.93656,0.053096 C46.66068,0.055736 46.37292,0.078176 46.09176,0.124376 L4.41936,7.018736 C1.54176,7.493936 -0.40392,10.213136 0.07128,13.090736 L11.59488,83.020376 C12.02124,85.598336 14.2494,87.413336 16.7772,87.423896 L22.11924,87.439736 L22.11924,86.631896 L59.3406,80.474096 C62.21688,79.997576 64.16256,77.279696 63.68736,74.402096" id="Fill-1" fill="#6F7585" mask="url(#mask-2)"></path>
                </g>
                <g id="Group-6" transform="translate(5.060000, 5.280000)">
                    <mask id="mask-4" fill="white">
                        <use xlink:href="#path-3"></use>
                    </mask>
                    <g id="Clip-5"></g>
                    <path d="M4.535476,7.019396 C1.659196,7.494596 -0.287804,10.213796 0.188716,13.090076 L11.712316,83.021036 C12.188836,85.897316 14.906716,87.844316 17.782996,87.369116 L59.456716,80.473436 C62.332996,79.998236 64.279996,77.279036 63.804796,74.402756 L52.279876,4.471796 C51.804676,1.594196 49.086796,-0.351484 46.209196,0.125036 L4.535476,7.019396 Z" id="Fill-4" fill="#A2A4B0" mask="url(#mask-4)"></path>
                </g>
                <polygon id="Fill-7" fill="#EBEBEC" points="58.202496 14.960912 6.110016 23.579192 15.909696 83.091392 68.002176 74.473112"></polygon>
                <path d="M48.027276,83.130464 C48.503796,86.008064 46.556796,88.724624 43.680516,89.201144 C40.802916,89.677664 38.085036,87.730664 37.608516,84.854384 C37.133316,81.976784 39.078996,79.257584 41.956596,78.782384 C44.832876,78.307184 47.552076,80.252864 48.027276,83.130464" id="Fill-9" fill="#6F7585"></path>
                <path d="M55.316844,15.84782 C55.316844,8.95346 50.905404,3.10586 44.756844,0.92786 L44.756844,0.00782 L39.476844,0.00782 C30.729204,0.00782 23.636844,7.09886 23.636844,15.84782 C23.636844,24.59546 30.729204,31.68782 39.476844,31.68782 L44.756844,31.68782 L44.756844,30.76778 C50.905404,28.58978 55.316844,22.74218 55.316844,15.84782" id="Fill-11" fill="#FF961E"></path>
                <path d="M60.596844,15.84782 C60.596844,24.59546 53.504484,31.68782 44.756844,31.68782 C36.009204,31.68782 28.916844,24.59546 28.916844,15.84782 C28.916844,7.09886 36.009204,0.00782 44.756844,0.00782 C53.504484,0.00782 60.596844,7.09886 60.596844,15.84782" id="Fill-13" fill="#F5DE3E"></path>
                <path d="M44.874192,26.362676 C44.490072,26.362676 44.152152,26.239916 43.900032,26.004956 C43.674312,25.809596 43.543632,25.556156 43.543632,25.285556 L43.543632,24.076436 C42.363552,23.964236 41.295672,23.663276 40.366392,23.176196 C39.280032,22.623116 38.465592,21.930116 37.958712,21.134156 C37.818792,20.899196 37.762032,20.693276 37.762032,20.505836 C37.762032,20.196956 37.903272,19.905236 38.164632,19.672916 C38.811432,19.110596 40.029792,19.202996 40.544592,19.897316 C41.463312,21.152636 42.832152,21.762476 44.742192,21.762476 C46.063512,21.762476 47.066712,21.545996 47.741232,21.123596 C48.378792,20.722316 48.687672,20.140196 48.687672,19.325756 C48.687672,18.809636 48.500232,18.388556 48.096312,18.032156 C47.665992,17.648036 47.141952,17.376116 46.485912,17.179436 C45.745392,16.964276 44.929632,16.729316 44.058432,16.467956 C43.177992,16.205276 42.352992,15.934676 41.595312,15.670676 C40.742592,15.371036 40.029792,14.885276 39.458232,14.229236 C38.895912,13.563956 38.605512,12.766676 38.605512,11.858516 C38.605512,10.723316 39.083352,9.749156 40.029792,8.953196 C40.864032,8.249636 42.044112,7.810076 43.534392,7.641116 L43.534392,6.404276 C43.534392,6.133676 43.655832,5.878916 43.889472,5.672996 C44.396352,5.224196 45.322992,5.214956 45.829872,5.672996 C46.063512,5.878916 46.186272,6.133676 46.186272,6.404276 L46.186272,7.641116 C48.331272,7.876076 50.008992,8.699756 51.142872,10.077836 C51.310512,10.292996 51.404232,10.527956 51.404232,10.770836 C51.404232,11.090276 51.255072,11.379356 50.983152,11.614316 C50.336352,12.147596 49.259232,12.073676 48.706152,11.491556 C47.693712,10.451396 46.447632,9.945836 44.901912,9.945836 C43.758792,9.945836 42.924552,10.133276 42.418992,10.498916 C41.922672,10.864556 41.679792,11.305436 41.679792,11.867756 C41.679792,12.373316 41.941152,12.795716 42.475752,13.132316 C43.102752,13.525676 43.889472,13.853036 44.798952,14.087996 C45.791592,14.349356 46.804032,14.641076 47.796672,14.968436 C48.875112,15.315596 49.801752,15.848876 50.562072,16.551116 C51.348792,17.282396 51.751392,18.219596 51.751392,19.325756 C51.751392,20.750036 51.198312,21.891836 50.121192,22.716836 C49.165512,23.448116 47.844192,23.898236 46.186272,24.067196 L46.186272,25.274996 C46.186272,25.546916 46.054272,25.809596 45.820632,26.015516 C45.586992,26.239916 45.258312,26.362676 44.874192,26.362676" id="Fill-15" fill="#FFB32C"></path>
            </g>
            <g id="Group-34" transform="translate(5.280000, 12.192444)">
                <mask id="mask-6" fill="white">
                    <use xlink:href="#path-5"></use>
                </mask>
                <g id="Clip-19"></g>
                <polygon id="Fill-18" fill="#FFB32C" mask="url(#mask-6)" points="7.79724 72.60716 34.19724 72.60716 34.19724 56.76716 7.79724 56.76716"></polygon>
                <polygon id="Fill-20" fill="#FFB32C" mask="url(#mask-6)" points="44.75724 72.60716 71.15724 72.60716 71.15724 46.20716 44.75724 46.20716"></polygon>
                <polygon id="Fill-21" fill="#FF961E" mask="url(#mask-6)" points="44.75724 52.14716 71.15724 52.14716 71.15724 50.82716 44.75724 50.82716"></polygon>
                <polygon id="Fill-22" fill="#FF961E" mask="url(#mask-6)" points="44.75724 57.42716 71.15724 57.42716 71.15724 56.10716 44.75724 56.10716"></polygon>
                <polygon id="Fill-23" fill="#FF961E" mask="url(#mask-6)" points="44.75724 62.70716 71.15724 62.70716 71.15724 61.38716 44.75724 61.38716"></polygon>
                <polygon id="Fill-24" fill="#FF961E" mask="url(#mask-6)" points="44.75724 67.98716 71.15724 67.98716 71.15724 66.66716 44.75724 66.66716"></polygon>
                <polygon id="Fill-25" fill="#FF961E" mask="url(#mask-6)" points="7.79724 67.98716 34.19724 67.98716 34.19724 66.66716 7.79724 66.66716"></polygon>
                <polygon id="Fill-26" fill="#FF961E" mask="url(#mask-6)" points="7.79724 62.70716 34.19724 62.70716 34.19724 61.38716 7.79724 61.38716"></polygon>
                <polygon id="Fill-27" fill="#F5DE3E" mask="url(#mask-6)" points="23.63724 72.60716 50.03724 72.60716 50.03724 35.64716 23.63724 35.64716"></polygon>
                <polygon id="Fill-28" fill="#FFB32C" mask="url(#mask-6)" points="23.63724 46.86716 50.03724 46.86716 50.03724 45.54716 23.63724 45.54716"></polygon>
                <polygon id="Fill-29" fill="#FFB32C" mask="url(#mask-6)" points="23.63724 41.58716 50.03724 41.58716 50.03724 40.26716 23.63724 40.26716"></polygon>
                <polygon id="Fill-30" fill="#FFB32C" mask="url(#mask-6)" points="23.63724 52.14716 50.03724 52.14716 50.03724 50.82716 23.63724 50.82716"></polygon>
                <polygon id="Fill-31" fill="#FFB32C" mask="url(#mask-6)" points="23.63724 57.42716 50.03724 57.42716 50.03724 56.10716 23.63724 56.10716"></polygon>
                <polygon id="Fill-32" fill="#FFB32C" mask="url(#mask-6)" points="23.63724 62.70716 50.03724 62.70716 50.03724 61.38716 23.63724 61.38716"></polygon>
                <polygon id="Fill-33" fill="#FFB32C" mask="url(#mask-6)" points="23.63724 67.98716 50.03724 67.98716 50.03724 66.66716 23.63724 66.66716"></polygon>
            </g>
            <g id="Group-39" transform="translate(65.780000, 10.872444)">
                <polygon id="Fill-35" fill="#18A589" points="8.016844 0.00782 10.817884 5.12678 15.936844 7.92782 10.817884 10.72754 8.016844 15.84782 5.215804 10.72754 0.096844 7.92782 5.215804 5.12678"></polygon>
                <polygon id="Fill-37" fill="#00695C" points="5.456836 21.287672 7.295596 24.649712 10.656316 26.487152 7.295596 28.325912 5.456836 31.687952 3.618076 28.325912 0.257356 26.487152 3.618076 24.649712"></polygon>
            </g>
        </g>
    </g>
</svg>