<?xml version="1.0" encoding="UTF-8"?>
<svg width="120px" height="120px" viewBox="0 0 120 120" version="1.1" xmlns="http://www.w3.org/2000/svg" xmlns:xlink="http://www.w3.org/1999/xlink">
    <title>05.Icons-&amp;-Images / Images / 120 / Contrato@1x</title>
    <g id="05.Icons-&amp;-Images-/-Images-/-120-/-Contrato" stroke="none" stroke-width="1" fill="none" fill-rule="evenodd">
        <g id="Group-20" transform="translate(20.000000, 11.000000)">
            <polygon id="Fill-1" fill="#C1BBB4" points="0 16.83565 19.941 94.31065 78.0475 79.35465 61.097 13.50115 46.485 4.87115"></polygon>
            <polygon id="Fill-2" fill="#F2EFEA" points="49.3614 0.00025 2.8769 11.96475 22.8179 89.43975 80.9239 74.48375 63.9744 8.63025"></polygon>
            <polygon id="Fill-3" fill="#C1BBB4" points="52.353 11.6215 63.974 8.6305 49.3615 0.0005"></polygon>
            <line x1="13.61525" y1="21.5919" x2="36.85775" y2="15.6094" id="Stroke-4" stroke="#C1BBB4" stroke-width="3"></line>
            <line x1="24.354" y1="31.2189" x2="59.218" y2="22.2459" id="Stroke-5" stroke="#C1BBB4" stroke-width="3"></line>
            <line x1="18.6006" y1="40.96055" x2="61.2121" y2="29.99305" id="Stroke-6" stroke="#C1BBB4" stroke-width="3"></line>
            <line x1="20.59475" y1="48.70815" x2="63.20625" y2="37.74065" id="Stroke-7" stroke="#C1BBB4" stroke-width="3"></line>
            <line x1="22.58885" y1="56.4557" x2="45.83135" y2="50.4732" id="Stroke-8" stroke="#C1BBB4" stroke-width="3"></line>
            <line x1="48.82225" y1="62.09435" x2="68.19075" y2="57.10935" id="Stroke-9" stroke="#C1BBB4" stroke-width="3"></line>
            <line x1="50.8164" y1="69.8419" x2="70.1849" y2="64.8569" id="Stroke-10" stroke="#C1BBB4" stroke-width="3"></line>
            <g id="Group-19" transform="translate(12.500000, 69.547000)">
                <path d="M28.25145,16.0244 C27.40895,23.7104 20.49495,29.2584 12.80895,28.4154 C5.12345,27.5729 -0.42455,20.6589 0.41795,12.9729 C1.26095,5.2869 8.17495,-0.2601 15.86095,0.5819 C23.54645,1.4249 29.09445,8.3389 28.25145,16.0244" id="Fill-11" fill="#FFFFFF"></path>
                <path d="M28.25145,16.0244 C27.40895,23.7104 20.49495,29.2584 12.80895,28.4154 C5.12345,27.5729 -0.42455,20.6589 0.41795,12.9729 C1.26095,5.2869 8.17495,-0.2601 15.86095,0.5819 C23.54645,1.4249 29.09445,8.3389 28.25145,16.0244 Z" id="Stroke-13" stroke="#18A589" stroke-width="3"></path>
                <g id="Group-18" transform="translate(6.500000, 10.500000)">
                    <polyline id="Fill-15" fill="#FFFFFF" points="0.27295 1.605 5.77995 8.4685 16.07495 0.2075"></polyline>
                    <polyline id="Stroke-17" stroke="#18A589" stroke-width="3" points="0.27295 1.605 5.77995 8.4685 16.07495 0.2075"></polyline>
                </g>
            </g>
        </g>
    </g>
</svg>