<?xml version="1.0" encoding="UTF-8"?>
<svg width="100px" height="100px" viewBox="0 0 100 100" version="1.1" xmlns="http://www.w3.org/2000/svg" xmlns:xlink="http://www.w3.org/1999/xlink">
    <title>18F01AAB-DB4A-4DD4-9BF1-06076C3F459C</title>
    <g id="layout" stroke="none" stroke-width="1" fill="none" fill-rule="evenodd">
        <g id="DESK---Boas-vindas" transform="translate(-400.000000, -120.000000)">
            <g id="09.Templates-/-Intro-/-Desktop-/-Com-imagem" transform="translate(0.000000, 110.000000)">
                <g id="Content" transform="translate(90.000000, 0.000000)">
                    <g id="04.Icons-&amp;-Images-/-Images-/-120-/-Defaut" transform="translate(300.000000, 0.000000)">
                        <g id="Illustration" transform="translate(10.000000, 10.000000)">
                            <rect id="Bound" stroke="#979797" stroke-width="0.5" opacity="0" x="0.25" y="0.25" width="99.5" height="99.5"></rect>
                            <g id="Image" transform="translate(3.333333, 3.333333)" fill-rule="nonzero">
                                <path d="M44.969697,36.9090909 L50.7890133,20.0397995 C52.1774665,16.0852025 56.2279568,13.5954103 60.5264942,14.0542765 C64.8250316,14.5131426 68.2143777,17.7971325 68.6745677,21.9490711 C69.1347578,26.1010096 66.5419009,30.0031254 62.4412743,31.3298557 L44.969697,36.9090909 Z M59.524802,19.2107734 C57.9061996,19.2078572 56.4699151,20.2120717 55.967796,21.6977798 L53.5828303,28.5928724 L60.724099,26.290122 C62.4796351,25.7287082 63.5520688,24.0184437 63.2535443,22.2562874 C62.9550197,20.4941311 61.3741081,19.2029098 59.524802,19.2107734 L59.524802,19.2107734 Z" id="Shape" fill="#00695C"></path>
                                <path d="M52.6060606,36.9090909 L35.7694414,31.3310683 C31.8080896,30.0091665 29.3016191,26.100788 29.748312,21.9422276 C30.1950049,17.7836672 33.4741298,14.4988932 37.6255382,14.0514308 C41.7769467,13.6039684 45.6786035,16.1147569 46.9982319,20.0829332 L52.6060606,36.9090909 Z M38.5799223,19.21462 C36.7978243,19.2067582 35.2743667,20.4976988 34.9866912,22.2594721 C34.6990157,24.0212454 35.7324748,25.7311383 37.4242105,26.29243 L44.3059488,28.5946799 L42.0076583,21.7010859 C41.5237873,20.2157007 40.1397008,19.2117045 38.5799223,19.21462 L38.5799223,19.21462 Z" id="Shape" fill="#18A589"></path>
                                <path d="M38.1818182,32.6666667 L82.1066713,32.6666667 C85.4953541,32.6666667 88.2424242,35.4260172 88.2424242,38.8298485 L88.2424242,87.1701515 C88.2424242,88.804729 87.5959807,90.3723584 86.4453038,91.5281792 C85.2946269,92.684 83.7339742,93.3333333 82.1066713,93.3333333 L38.1818182,93.3333333 L38.1818182,32.6666667 Z" id="Path" fill="#DADBDC"></path>
                                <rect id="Rectangle" fill="#EBEBEC" x="10.6060606" y="32.6666667" width="39.4545455" height="60.6666667" rx="2"></rect>
                                <rect id="Rectangle" fill="#18A589" x="26.3030303" y="32.6666667" width="6.36363636" height="60.6666667"></rect>
                                <rect id="Rectangle" fill="#00695C" x="65.7575758" y="32.6666667" width="6.36363636" height="60.6666667"></rect>
                                <polygon id="Path" fill="#FFB32C" points="19.0909091 0 22.0888889 5.48686869 27.5757576 8.48484848 22.0888889 11.4828283 19.0909091 16.969697 16.0929293 11.4828283 10.6060606 8.48484848 16.0929293 5.48686869"></polygon>
                                <polygon id="Path" fill="#FF961E" points="5.3030303 16.969697 7.17234848 20.4034091 10.6060606 22.2727273 7.17234848 24.1420455 5.3030303 27.5757576 3.43371212 24.1420455 0 22.2727273 3.43371212 20.4034091"></polygon>
                                <polygon id="Path" fill="#FF961E" points="88.030303 10.6060606 89.8996212 14.0397727 93.3333333 15.9090909 89.8996212 17.7784091 88.030303 21.2121212 86.1609848 17.7784091 82.7272727 15.9090909 86.1609848 14.0397727"></polygon>
                            </g>
                        </g>
                    </g>
                </g>
            </g>
        </g>
    </g>
</svg>